<svg width="359" height="48" viewBox="0 0 359 48" fill="none" xmlns="http://www.w3.org/2000/svg">
<rect width="359" height="48" fill="#A31D23"/>
<path d="M45.6667 22.7167V14.7834C45.6667 13.0334 44.92 12.3334 43.065 12.3334H38.3517C36.4967 12.3334 35.75 13.0334 35.75 14.7834V22.7167C35.75 24.4667 36.4967 25.1667 38.3517 25.1667H43.065C44.92 25.1667 45.6667 24.4667 45.6667 22.7167Z" stroke="#47B5E5" stroke-width="1.5" stroke-linecap="round" stroke-linejoin="round"/>
<path d="M45.6667 33.2166V31.1166C45.6667 29.3666 44.92 28.6666 43.065 28.6666H38.3517C36.4967 28.6666 35.75 29.3666 35.75 31.1166V33.2166C35.75 34.9666 36.4967 35.6666 38.3517 35.6666H43.065C44.92 35.6666 45.6667 34.9666 45.6667 33.2166Z" stroke="#47B5E5" stroke-width="1.5" stroke-linecap="round" stroke-linejoin="round"/>
<path d="M32.2499 25.2834V33.2167C32.2499 34.9667 31.5033 35.6667 29.6483 35.6667H24.9349C23.0799 35.6667 22.3333 34.9667 22.3333 33.2167V25.2834C22.3333 23.5334 23.0799 22.8334 24.9349 22.8334H29.6483C31.5033 22.8334 32.2499 23.5334 32.2499 25.2834Z" stroke="#47B5E5" stroke-width="1.5" stroke-linecap="round" stroke-linejoin="round"/>
<path d="M32.2499 14.7834V16.8834C32.2499 18.6334 31.5033 19.3334 29.6483 19.3334H24.9349C23.0799 19.3334 22.3333 18.6334 22.3333 16.8834V14.7834C22.3333 13.0334 23.0799 12.3334 24.9349 12.3334H29.6483C31.5033 12.3334 32.2499 13.0334 32.2499 14.7834Z" stroke="#47B5E5" stroke-width="1.5" stroke-linecap="round" stroke-linejoin="round"/>
<path d="M70.3333 20.5V18.1667C70.3333 14.6667 72.6666 12.3334 76.1666 12.3334H87.8333C91.3333 12.3334 93.6666 14.6667 93.6666 18.1667V20.5" stroke="#F6F6F6" stroke-width="1.5" stroke-miterlimit="10" stroke-linecap="round" stroke-linejoin="round"/>
<path d="M70.3333 27.5V29.8333C70.3333 33.3333 72.6666 35.6667 76.1666 35.6667H87.8333C91.3333 35.6667 93.6666 33.3333 93.6666 29.8333V27.5" stroke="#F6F6F6" stroke-width="1.5" stroke-miterlimit="10" stroke-linecap="round" stroke-linejoin="round"/>
<path d="M77.3333 19.3334H86.6666" stroke="#F6F6F6"/>
<path d="M77.3333 22.8334H86.6666" stroke="#F6F6F6"/>
<path d="M77.3333 26.3334H86.6666" stroke="#F6F6F6"/>
<path d="M77.3333 29.8334H86.6666" stroke="#F6F6F6"/>
<rect x="75.5" y="16.3334" width="13" height="16.5" rx="1.5" stroke="#F6F6F6"/>
<path d="M118.333 20.5V18.1667C118.333 14.6667 120.667 12.3334 124.167 12.3334H135.833C139.333 12.3334 141.667 14.6667 141.667 18.1667V20.5" stroke="#F6F6F6" stroke-width="1.5" stroke-miterlimit="10" stroke-linecap="round" stroke-linejoin="round"/>
<path d="M118.333 27.5V29.8333C118.333 33.3333 120.667 35.6667 124.167 35.6667H135.833C139.333 35.6667 141.667 33.3333 141.667 29.8333V27.5" stroke="#F6F6F6" stroke-width="1.5" stroke-miterlimit="10" stroke-linecap="round" stroke-linejoin="round"/>
<path d="M123.817 20.8033L130 24.385L136.137 20.8267" stroke="#F6F6F6" stroke-width="1.5" stroke-linecap="round" stroke-linejoin="round"/>
<path d="M130 30.7316V24.3733" stroke="#F6F6F6" stroke-width="1.5" stroke-linecap="round" stroke-linejoin="round"/>
<path d="M128.553 17.3383L124.82 19.415C123.98 19.8817 123.28 21.06 123.28 22.0283V25.9834C123.28 26.9517 123.968 28.13 124.82 28.5967L128.553 30.6733C129.347 31.1166 130.653 31.1166 131.458 30.6733L135.192 28.5967C136.032 28.13 136.732 26.9517 136.732 25.9834V22.0283C136.732 21.06 136.043 19.8817 135.192 19.415L131.458 17.3383C130.653 16.8833 129.347 16.8833 128.553 17.3383Z" stroke="#F6F6F6" stroke-width="1.5" stroke-linecap="round" stroke-linejoin="round"/>
<path d="M185.163 35.2234C184.137 35.5267 182.923 35.6667 181.5 35.6667H174.5C173.077 35.6667 171.863 35.5267 170.837 35.2234C171.093 32.19 174.208 29.7983 178 29.7983C181.792 29.7983 184.907 32.19 185.163 35.2234Z" stroke="#F6F6F6" stroke-width="1.5" stroke-linecap="round" stroke-linejoin="round"/>
<path d="M181.5 12.3334H174.5C168.667 12.3334 166.333 14.6667 166.333 20.5V27.5C166.333 31.91 167.663 34.325 170.837 35.2234C171.093 32.19 174.208 29.7983 178 29.7983C181.792 29.7983 184.907 32.19 185.163 35.2234C188.337 34.325 189.667 31.91 189.667 27.5V20.5C189.667 14.6667 187.333 12.3334 181.5 12.3334ZM178 26.5317C175.69 26.5317 173.823 24.6534 173.823 22.3434C173.823 20.0334 175.69 18.1667 178 18.1667C180.31 18.1667 182.177 20.0334 182.177 22.3434C182.177 24.6534 180.31 26.5317 178 26.5317Z" stroke="#F6F6F6" stroke-width="1.5" stroke-linecap="round" stroke-linejoin="round"/>
<path d="M182.177 22.3433C182.177 24.6533 180.31 26.5316 178 26.5316C175.69 26.5316 173.823 24.6533 173.823 22.3433C173.823 20.0333 175.69 18.1666 178 18.1666C180.31 18.1666 182.177 20.0333 182.177 22.3433Z" stroke="#F6F6F6" stroke-width="1.5" stroke-linecap="round" stroke-linejoin="round"/>
<path d="M229.5 28C230.512 28 231.334 28.8206 231.334 29.833C231.334 30.8455 230.512 31.667 229.5 31.667C228.487 31.6668 227.667 30.8454 227.667 29.833C227.667 28.8207 228.487 28.0002 229.5 28Z" stroke="#F6F6F6"/>
<path d="M221.333 28C222.345 28 223.167 28.8206 223.167 29.833C223.167 30.8455 222.346 31.667 221.333 31.667C220.321 31.6668 219.5 30.8454 219.5 29.833C219.5 28.8207 220.321 28.0002 221.333 28Z" stroke="#F6F6F6"/>
<path d="M219 27.5V18.1666H229.889V22.8333H233V27.5H219Z" stroke="#F6F6F6"/>
<path d="M222.5 35.6667H229.5C235.333 35.6667 237.667 33.3334 237.667 27.5V20.5C237.667 14.6667 235.333 12.3334 229.5 12.3334H222.5C216.667 12.3334 214.333 14.6667 214.333 20.5V27.5C214.333 33.3334 216.667 35.6667 222.5 35.6667Z" stroke="#F6F6F6" stroke-width="1.5" stroke-linecap="round" stroke-linejoin="round"/>
<path d="M262.333 22.8333V20.5C262.333 16.4166 264.667 14.6666 268.167 14.6666H279.833C283.333 14.6666 285.667 16.4166 285.667 20.5V27.5C285.667 31.5833 283.333 33.3333 279.833 33.3333H274" stroke="#F6F6F6" stroke-width="1.5" stroke-miterlimit="10" stroke-linecap="round" stroke-linejoin="round"/>
<path d="M274 26.9167C275.611 26.9167 276.917 25.6109 276.917 24C276.917 22.3892 275.611 21.0834 274 21.0834C272.389 21.0834 271.083 22.3892 271.083 24C271.083 25.6109 272.389 26.9167 274 26.9167Z" stroke="#F6F6F6" stroke-width="1.5" stroke-miterlimit="10" stroke-linecap="round" stroke-linejoin="round"/>
<path d="M281.583 21.0834V26.9167" stroke="#F6F6F6" stroke-width="1.5" stroke-miterlimit="10" stroke-linecap="round" stroke-linejoin="round"/>
<path d="M262.333 28.0834H268.563C269.31 28.0834 269.917 28.69 269.917 29.4367V30.93" stroke="#F6F6F6" stroke-width="1.5" stroke-miterlimit="10" stroke-linecap="round" stroke-linejoin="round"/>
<path d="M263.757 26.66L262.333 28.0833L263.757 29.5066" stroke="#F6F6F6" stroke-width="1.5" stroke-miterlimit="10" stroke-linecap="round" stroke-linejoin="round"/>
<path d="M269.917 34.2434H263.687C262.94 34.2434 262.333 33.6367 262.333 32.89V31.3967" stroke="#F6F6F6" stroke-width="1.5" stroke-miterlimit="10" stroke-linecap="round" stroke-linejoin="round"/>
<path d="M268.495 35.667L269.918 34.2437L268.495 32.8203" stroke="#F6F6F6" stroke-width="1.5" stroke-miterlimit="10" stroke-linecap="round" stroke-linejoin="round"/>
<path d="M310.333 20.5V18.1667C310.333 14.6667 312.667 12.3334 316.167 12.3334H327.833C331.333 12.3334 333.667 14.6667 333.667 18.1667V20.5" stroke="#F6F6F6" stroke-width="1.5" stroke-miterlimit="10" stroke-linecap="round" stroke-linejoin="round"/>
<path d="M310.333 27.5V29.8333C310.333 33.3333 312.667 35.6667 316.167 35.6667H327.833C331.333 35.6667 333.667 33.3333 333.667 29.8333V27.5" stroke="#F6F6F6" stroke-width="1.5" stroke-miterlimit="10" stroke-linecap="round" stroke-linejoin="round"/>
<circle cx="322" cy="24" r="5.33333" stroke="#F6F6F6"/>
<circle cx="322" cy="23.9999" r="7.66667" stroke="#F6F6F6"/>
<path d="M319.667 17L320.833 14.6666H323.167L324.333 17" stroke="#F6F6F6"/>
<path d="M319.667 30.9999L320.833 33.3333H323.167L324.333 30.9999" stroke="#F6F6F6"/>
<path d="M315 26.3333L312.667 25.1666V22.8333L315 21.6666" stroke="#F6F6F6"/>
<path d="M329 21.6666L331.333 22.8333V25.1666L329 26.3333" stroke="#F6F6F6"/>
<path d="M315.483 20.7831L314.658 18.3082L316.308 16.6583L318.783 17.4833" stroke="#F6F6F6"/>
<path d="M325.5 17.4832L327.975 16.6582L329.625 18.3081L328.8 20.783" stroke="#F6F6F6"/>
<path d="M318.783 30.7998L316.308 31.6247L314.658 29.9748L315.483 27.5" stroke="#F6F6F6"/>
<path d="M328.8 27.5L329.625 29.9749L327.975 31.6248L325.5 30.7998" stroke="#F6F6F6"/>
</svg>
